# xmcd
#
# Track frame offsets: 
#        150
#        16551
#        28546
#        46150
#        61720
#        79358
#        99351
#        112151
#        121750
#        132951
#        156150
#        178940
#        201350
#        214925
#        232551
#        250150
#        268951
#
# Disc length: 3766 seconds
#
# Revision: 1
# Processed by: cddbd v1.5.2PL0 Copyright (c) Steve Scherf et al.
# Submitted via: ExactAudioCopy v0.95b4
#
DISCID=e00eb411
DTITLE=Various Artist - Lickable Beats 2
DYEAR=2005
DGENRE=Drum and Bass
TTITLE0=E-Z Rollers - Deathsport
TTITLE1=E-Z Rollers and Tommy Knocker - Underdog
TTITLE2=Tommy Knocker - Liquidator
TTITLE3=E-Z Rollers - Stray Dogs
TTITLE4=Tommy Knocker - Souljacker (Bonus Track)
TTITLE5=E-Z Rollers - Bellagio
TTITLE6=Tommy Knocker - Brothers
TTITLE7=E-Z Rollers - Showtime featuring Heidi Levo and Gustavo Marqus (
TTITLE7=Bonus Track)
TTITLE8=E-Z Rollers - Showtime featuring Heidi Levo and Gustavo Marqus (
TTITLE8=Remix)
TTITLE9=E-Z Rollers - So Good Tonight
TTITLE10=Flytronix - The Sermon
TTITLE11=Entity - Portugal
TTITLE12=Flytronix - Violator (Bonus Track)
TTITLE13=E-Z Rollers - Time Girl (Bonus Track)
TTITLE14=E-Z Rollers - Skaface
TTITLE15=E-Z Rollers - Quickfix (Bonus Track)
TTITLE16=Ringleader - 1000 Tears (E-Z Rollers Remix)
EXTD=
EXTT0=
EXTT1=
EXTT2=
EXTT3=
EXTT4=
EXTT5=
EXTT6=
EXTT7=
EXTT8=
EXTT9=
EXTT10=
EXTT11=
EXTT12=
EXTT13=
EXTT14=
EXTT15=
EXTT16=
PLAYORDER=
